<svg width="286" height="160" viewBox="0 0 286 160" fill="none" xmlns="http://www.w3.org/2000/svg">
<g clip-path="url(#clip0_4_179)">
<mask id="mask0_4_179" style="mask-type:alpha" maskUnits="userSpaceOnUse" x="0" y="17" width="285" height="125">
<rect y="17.0518" width="284.938" height="124.058" fill="url(#paint0_linear_4_179)"/>
</mask>
<g mask="url(#mask0_4_179)">
<path d="M249.225 33.345L233.12 27.9651L166.793 28.1726L155.312 24.0481L145.597 28.0837L104.085 27.97L87.6362 20.4277H63.7193L60.0198 27.9675H39.1746L0 90.3523L43.608 139.575H241.423L285.031 90.3523L249.223 33.3425L249.225 33.345ZM240.418 137.344H44.6139L2.78265 90.125L40.4127 30.1991H61.416L65.1131 22.6592H87.1494L103.593 30.1991L146.04 30.3152L155.369 26.4378L166.406 30.4042L232.759 30.1966L247.757 35.2059L282.249 90.12L240.418 137.339V137.344Z" fill="url(#paint1_linear_4_179)"/>
</g>
<path d="M282.251 90.1247L240.418 137.341H44.6138L2.78259 90.1247L40.4126 30.1989H61.416L65.113 22.659H87.1493L103.596 30.1989L146.04 30.3175L155.369 26.4401L166.405 30.4065L232.759 30.1989L247.757 35.2106L282.251 90.1247Z" fill="url(#paint2_linear_4_179)"/>
<path d="M282.246 90.1247L247.759 35.2106L232.756 30.2013L166.407 30.4039L155.371 26.4375L146.037 30.315L103.593 30.2013L87.1488 22.6614H65.1149L61.4179 30.2013H40.4171L2.78455 90.1247H27.9495L46.9165 104.223H77.6344L82.2334 90.1247H102.159L106.739 70.1766H111.283L117.422 67.5027L116.134 81.0403L133.107 90.1247H282.246Z" fill="#4A357D"/>
<path d="M16.1102 82.7579H37.5485L41.2332 75.6901H31.7262L38.453 63.8972L49.4749 59.8838L52.9569 53.2114L42.4663 56.8615L48.0489 47.0728L44.7597 42.103H50.886H58.7495L61.1146 37.5683H44.4903L16.1102 82.7579Z" fill="white"/>
<path d="M69.7097 30.0257L57.2644 55.4205L72.354 64.3764L78.2751 67.4358L69.3143 72.3017L62.9903 88.7826H52.8408L63.6946 63.6918L55.5864 58.8432L40.2571 90.1171L49.3489 96.8563H72.2897L83.6551 62.0015L68.1231 53.4533L76.4834 34.128H83.9566L89.0424 36.2657L81.8486 39.6241L76.9382 52.4278L85.3084 56.9255L92.9594 33.4608L85.5308 30.0257H69.7097Z" fill="white"/>
<path d="M97.6869 37.5678L84.7078 82.7574H96.2906L100.872 62.8093H109.749L120.776 58.0077L122.82 41.4155L114.309 37.5678H97.6844H97.6869ZM112.571 47.2033L110.792 57.0513H102.197L105.63 42.1001H113.493L119.296 44.4602L112.571 47.2008V47.2033Z" fill="white"/>
<path d="M127.668 37.5678L123.932 76.8585L134.954 82.7574H156.392L153.543 41.4155L144.295 37.5678H127.671H127.668ZM144.451 51.4711L144.728 75.6871H135.221L136.483 42.1001H144.347L150.389 44.4602L144.453 51.4711H144.451Z" fill="white"/>
<path d="M159.881 41.4328L164.367 82.7574H175.95L172.636 62.8093H181.513L185.803 82.7574H197.388L192.191 63.6916L185.373 60.8051L190.641 58.0077L185.069 37.5678H168.444L159.881 41.4328V41.4328ZM180.277 57.0513H171.682L170.056 47.2552L163.349 44.4626L169.198 42.1026H177.062L180.277 57.0537V57.0513Z" fill="white"/>
<path d="M189.366 42.1026H197.109L210.925 82.7574H222.511L208.306 47.013L200.193 42.0482H213.953L211.961 37.5678H188.044L189.366 42.1026Z" fill="white"/>
<path d="M252.7 56.9252L242.926 41.3637L231.558 37.5678H214.934L223.217 55.4202L246.85 64.3761L253.305 75.6896H243.796L237.541 63.6916L224.804 58.8429L233.162 76.8585L247.483 82.7574H268.921L255.885 62.0012L232.2 53.4531L228.882 47.0871L220.16 42.1026H234.145L240.034 52.4275L252.7 56.9252Z" fill="white"/>
<path d="M155.759 32.1531C154.545 33.3369 153.171 34.4341 151.661 35.43C153.312 36.4358 154.881 37.5825 156.347 38.8503C157.59 37.5825 158.959 36.4358 160.432 35.43C158.746 34.4341 157.179 33.3369 155.759 32.1531Z" fill="#E2D45C"/>
<path d="M29.1737 77.1725L36.1303 64.9743C33.5503 65.2684 30.9925 65.5699 28.457 65.8838L18.7919 81.2748H36.6493L38.7869 77.1725H29.1737V77.1725Z" fill="url(#paint3_linear_4_179)"/>
<path d="M79.0514 61.1609C76.2885 61.3413 73.5429 61.534 70.8146 61.7391L73.0734 63.0786L80.4946 66.9115L81.8637 62.7079L79.0514 61.1609V61.1609ZM70.5008 73.3418L64.0112 90.265H50.5848L61.8192 64.2969L59.1156 62.6807C57.8009 62.7944 56.4887 62.9105 55.1838 63.0316L42.1331 89.6596L49.8385 95.3731H71.2125L80.0943 68.1348L70.5008 73.3418V73.3418Z" fill="url(#paint4_linear_4_179)"/>
<path d="M113.711 59.468L109.444 61.3264H99.6944L95.1127 81.2745H86.6782L92.6859 60.3552C99.6005 59.992 106.611 59.6954 113.711 59.468Z" fill="url(#paint5_linear_4_179)"/>
<path d="M154.803 81.2748H135.327L125.501 76.0184L127.11 59.1174C129.519 59.0679 131.936 59.0284 134.363 58.9963L133.681 77.1725H146.228L146.02 58.8999C147.13 58.8974 148.242 58.895 149.356 58.895C150.661 58.895 151.963 58.8974 153.261 58.9024L154.803 81.2748V81.2748Z" fill="url(#paint6_linear_4_179)"/>
<path d="M195.448 81.2746H187.001L182.711 61.3265H170.886L174.2 81.2746H165.696L163.277 58.9813C170.513 59.0703 177.672 59.2309 184.745 59.4583L181.925 60.9558L190.95 64.7764L195.448 81.2746V81.2746Z" fill="url(#paint7_linear_4_179)"/>
<path d="M212.147 60.6938C209.73 60.5529 207.301 60.4195 204.859 60.2959L211.989 81.2745H220.327L212.147 60.6938Z" fill="url(#paint8_linear_4_179)"/>
<path d="M255.52 64.2058C253.042 63.9463 250.546 63.6943 248.03 63.4521L255.859 77.1726H242.897L236.487 64.878L228.324 61.7692C228.141 61.7543 227.961 61.742 227.778 61.7296L234.265 75.7096L247.775 81.2749H266.241L255.52 64.2058V64.2058Z" fill="url(#paint9_linear_4_179)"/>
<path d="M86.04 98.08C87.816 98.08 89.368 98.44 90.696 99.16C92.04 99.864 93.072 100.856 93.792 102.136C94.512 103.416 94.872 104.88 94.872 106.528C94.872 108.16 94.504 109.616 93.768 110.896C93.048 112.176 92.016 113.184 90.672 113.92C89.344 114.64 87.8 115 86.04 115H79.344V98.08H86.04ZM85.68 110.848C87.056 110.848 88.136 110.472 88.92 109.72C89.704 108.968 90.096 107.904 90.096 106.528C90.096 105.136 89.704 104.064 88.92 103.312C88.136 102.544 87.056 102.16 85.68 102.16H84.048V110.848H85.68ZM110.768 101.536V115H106.04V113.08C105.64 113.688 105.088 114.184 104.384 114.568C103.68 114.936 102.872 115.12 101.96 115.12C100.392 115.12 99.1524 114.608 98.2404 113.584C97.3444 112.544 96.8964 111.136 96.8964 109.36V101.536H101.576V108.76C101.576 109.528 101.776 110.136 102.176 110.584C102.592 111.016 103.136 111.232 103.808 111.232C104.496 111.232 105.04 111.016 105.44 110.584C105.84 110.136 106.04 109.528 106.04 108.76V101.536H110.768ZM119.71 115.168C118.366 115.168 117.158 114.888 116.086 114.328C115.03 113.768 114.198 112.968 113.59 111.928C112.982 110.888 112.678 109.664 112.678 108.256C112.678 106.864 112.982 105.648 113.59 104.608C114.214 103.568 115.054 102.768 116.11 102.208C117.182 101.648 118.39 101.368 119.734 101.368C121.078 101.368 122.278 101.648 123.334 102.208C124.406 102.768 125.246 103.568 125.854 104.608C126.478 105.648 126.79 106.864 126.79 108.256C126.79 109.648 126.478 110.872 125.854 111.928C125.246 112.968 124.406 113.768 123.334 114.328C122.262 114.888 121.054 115.168 119.71 115.168ZM119.71 111.088C120.366 111.088 120.91 110.848 121.342 110.368C121.79 109.872 122.014 109.168 122.014 108.256C122.014 107.344 121.79 106.648 121.342 106.168C120.91 105.688 120.374 105.448 119.734 105.448C119.094 105.448 118.558 105.688 118.126 106.168C117.694 106.648 117.478 107.344 117.478 108.256C117.478 109.184 117.686 109.888 118.102 110.368C118.518 110.848 119.054 111.088 119.71 111.088ZM144.769 98.08V101.824H138.001V104.8H142.993V108.376H138.001V115H133.297V98.08H144.769ZM149.126 100.288C148.294 100.288 147.622 100.064 147.11 99.616C146.614 99.152 146.366 98.576 146.366 97.888C146.366 97.184 146.614 96.6 147.11 96.136C147.622 95.672 148.294 95.44 149.126 95.44C149.942 95.44 150.598 95.672 151.094 96.136C151.606 96.6 151.862 97.184 151.862 97.888C151.862 98.576 151.606 99.152 151.094 99.616C150.598 100.064 149.942 100.288 149.126 100.288ZM151.454 101.536V115H146.75V101.536H151.454ZM162.941 101.416C164.493 101.416 165.725 101.936 166.637 102.976C167.549 104 168.005 105.392 168.005 107.152V115H163.301V107.776C163.301 107.008 163.101 106.408 162.701 105.976C162.301 105.528 161.765 105.304 161.093 105.304C160.389 105.304 159.837 105.528 159.437 105.976C159.037 106.408 158.837 107.008 158.837 107.776V115H154.133V101.536H158.837V103.456C159.253 102.848 159.813 102.36 160.517 101.992C161.221 101.608 162.029 101.416 162.941 101.416ZM169.818 108.256C169.818 106.864 170.066 105.648 170.562 104.608C171.074 103.568 171.77 102.768 172.65 102.208C173.53 101.648 174.506 101.368 175.578 101.368C176.442 101.368 177.21 101.552 177.882 101.92C178.57 102.272 179.106 102.76 179.49 103.384V97.24H184.218V115H179.49V113.128C179.122 113.752 178.602 114.248 177.93 114.616C177.258 114.984 176.466 115.168 175.554 115.168C174.482 115.168 173.506 114.888 172.626 114.328C171.762 113.768 171.074 112.968 170.562 111.928C170.066 110.872 169.818 109.648 169.818 108.256ZM179.514 108.256C179.514 107.392 179.274 106.712 178.794 106.216C178.33 105.72 177.754 105.472 177.066 105.472C176.362 105.472 175.778 105.72 175.314 106.216C174.85 106.696 174.618 107.376 174.618 108.256C174.618 109.12 174.85 109.808 175.314 110.32C175.778 110.816 176.362 111.064 177.066 111.064C177.754 111.064 178.33 110.816 178.794 110.32C179.274 109.824 179.514 109.136 179.514 108.256ZM199.763 108.112C199.763 108.48 199.739 108.848 199.691 109.216H190.787C190.835 109.952 191.035 110.504 191.387 110.872C191.755 111.224 192.219 111.4 192.779 111.4C193.563 111.4 194.123 111.048 194.459 110.344H199.475C199.267 111.272 198.859 112.104 198.251 112.84C197.659 113.56 196.907 114.128 195.995 114.544C195.083 114.96 194.075 115.168 192.971 115.168C191.643 115.168 190.459 114.888 189.419 114.328C188.395 113.768 187.587 112.968 186.995 111.928C186.419 110.888 186.131 109.664 186.131 108.256C186.131 106.848 186.419 105.632 186.995 104.608C187.571 103.568 188.371 102.768 189.395 102.208C190.435 101.648 191.627 101.368 192.971 101.368C194.299 101.368 195.475 101.64 196.499 102.184C197.523 102.728 198.323 103.512 198.899 104.536C199.475 105.544 199.763 106.736 199.763 108.112ZM194.963 106.936C194.963 106.36 194.771 105.912 194.387 105.592C194.003 105.256 193.523 105.088 192.947 105.088C192.371 105.088 191.899 105.248 191.531 105.568C191.163 105.872 190.923 106.328 190.811 106.936H194.963ZM206.392 103.912C206.92 103.144 207.56 102.536 208.312 102.088C209.064 101.64 209.872 101.416 210.736 101.416V106.432H209.416C208.392 106.432 207.632 106.632 207.136 107.032C206.64 107.432 206.392 108.128 206.392 109.12V115H201.688V101.536H206.392V103.912Z" fill="white"/>
<path d="M90.696 99.16L89.7428 100.918L89.7553 100.925L89.768 100.932L90.696 99.16ZM93.792 102.136L95.5352 101.155L95.5352 101.155L93.792 102.136ZM93.768 110.896L92.0342 109.899L92.0295 109.907L92.0248 109.915L93.768 110.896ZM90.672 113.92L91.6253 115.678L91.6326 115.674L90.672 113.92ZM79.344 115H77.344V117H79.344V115ZM79.344 98.08V96.08H77.344V98.08H79.344ZM88.92 103.312L87.5204 104.741L87.528 104.748L87.5356 104.755L88.92 103.312ZM84.048 102.16V100.16H82.048V102.16H84.048ZM84.048 110.848H82.048V112.848H84.048V110.848ZM86.04 100.08C87.5417 100.08 88.7549 100.383 89.7428 100.918L91.6492 97.4018C89.9811 96.4973 88.0903 96.08 86.04 96.08V100.08ZM89.768 100.932C90.7815 101.463 91.5249 102.185 92.0489 103.117L95.5352 101.155C94.6191 99.5269 93.2985 98.2654 91.624 97.3883L89.768 100.932ZM92.0488 103.117C92.5807 104.062 92.872 105.181 92.872 106.528H96.872C96.872 104.579 96.4433 102.77 95.5352 101.155L92.0488 103.117ZM92.872 106.528C92.872 107.848 92.5779 108.954 92.0342 109.899L95.5018 111.893C96.4301 110.278 96.872 108.472 96.872 106.528H92.872ZM92.0248 109.915C91.4964 110.855 90.7423 111.601 89.7114 112.166L91.6326 115.674C93.2897 114.767 94.5996 113.497 95.5112 111.877L92.0248 109.915ZM89.7188 112.162C88.7284 112.699 87.5223 113 86.04 113V117C88.0777 117 89.9596 116.581 91.6252 115.678L89.7188 112.162ZM86.04 113H79.344V117H86.04V113ZM81.344 115V98.08H77.344V115H81.344ZM79.344 100.08H86.04V96.08H79.344V100.08ZM85.68 112.848C87.4282 112.848 89.0558 112.361 90.3045 111.163L87.5355 108.277C87.2162 108.583 86.6838 108.848 85.68 108.848V112.848ZM90.3045 111.163C91.5803 109.94 92.096 108.295 92.096 106.528H88.096C88.096 107.513 87.8277 107.996 87.5355 108.277L90.3045 111.163ZM92.096 106.528C92.096 104.753 91.5848 103.097 90.3045 101.869L87.5356 104.755C87.8232 105.031 88.096 105.519 88.096 106.528H92.096ZM90.3196 101.883C89.0726 100.662 87.4396 100.16 85.68 100.16V104.16C86.6724 104.16 87.1994 104.426 87.5204 104.741L90.3196 101.883ZM85.68 100.16H84.048V104.16H85.68V100.16ZM82.048 102.16V110.848H86.048V102.16H82.048ZM84.048 112.848H85.68V108.848H84.048V112.848ZM110.768 101.536H112.768V99.536H110.768V101.536ZM110.768 115V117H112.768V115H110.768ZM106.04 115H104.04V117H106.04V115ZM106.04 113.08H108.04V106.401L104.37 111.981L106.04 113.08ZM104.384 114.568L105.311 116.34L105.327 116.332L105.342 116.324L104.384 114.568ZM98.2404 113.584L96.7252 114.889L96.736 114.902L96.7469 114.914L98.2404 113.584ZM96.8964 101.536V99.536H94.8964V101.536H96.8964ZM101.576 101.536H103.576V99.536H101.576V101.536ZM102.176 110.584L100.685 111.916L100.71 111.944L100.736 111.971L102.176 110.584ZM105.44 110.584L106.908 111.943L106.92 111.93L106.932 111.916L105.44 110.584ZM106.04 101.536V99.536H104.04V101.536H106.04ZM108.768 101.536V115H112.768V101.536H108.768ZM110.768 113H106.04V117H110.768V113ZM108.04 115V113.08H104.04V115H108.04ZM104.37 111.981C104.168 112.288 103.873 112.569 103.427 112.812L105.342 116.324C106.304 115.799 107.113 115.088 107.711 114.179L104.37 111.981ZM103.458 112.796C103.08 112.993 102.598 113.12 101.96 113.12V117.12C103.147 117.12 104.281 116.879 105.311 116.34L103.458 112.796ZM101.96 113.12C100.872 113.12 100.21 112.788 99.734 112.254L96.7469 114.914C98.0948 116.428 99.9125 117.12 101.96 117.12V113.12ZM99.7557 112.279C99.255 111.697 98.8964 110.801 98.8964 109.36H94.8964C94.8964 111.471 95.4339 113.391 96.7252 114.889L99.7557 112.279ZM98.8964 109.36V101.536H94.8964V109.36H98.8964ZM96.8964 103.536H101.576V99.536H96.8964V103.536ZM99.5764 101.536V108.76H103.576V101.536H99.5764ZM99.5764 108.76C99.5764 109.878 99.8741 111.008 100.685 111.916L103.668 109.252C103.663 109.246 103.646 109.227 103.626 109.167C103.604 109.1 103.576 108.973 103.576 108.76H99.5764ZM100.736 111.971C101.576 112.844 102.665 113.232 103.808 113.232V109.232C103.688 109.232 103.639 109.213 103.635 109.211C103.633 109.211 103.633 109.21 103.632 109.21C103.632 109.21 103.631 109.21 103.631 109.21C103.631 109.21 103.631 109.21 103.631 109.21C103.631 109.21 103.631 109.21 103.631 109.21C103.631 109.21 103.63 109.209 103.628 109.207C103.626 109.206 103.622 109.202 103.617 109.197L100.736 111.971ZM103.808 113.232C104.951 113.232 106.065 112.853 106.908 111.943L103.973 109.225C103.971 109.227 103.974 109.224 103.982 109.219C103.989 109.213 103.995 109.211 103.994 109.211C103.993 109.212 103.981 109.217 103.952 109.222C103.923 109.227 103.876 109.232 103.808 109.232V113.232ZM106.932 111.916C107.743 111.008 108.04 109.878 108.04 108.76H104.04C104.04 108.973 104.013 109.1 103.991 109.167C103.971 109.227 103.954 109.246 103.949 109.252L106.932 111.916ZM108.04 108.76V101.536H104.04V108.76H108.04ZM106.04 103.536H110.768V99.536H106.04V103.536ZM116.086 114.328L115.149 116.095L115.16 116.101L116.086 114.328ZM113.59 111.928L115.316 110.919L115.316 110.919L113.59 111.928ZM113.59 104.608L111.875 103.579L111.869 103.589L111.863 103.599L113.59 104.608ZM116.11 102.208L115.184 100.435L115.173 100.441L116.11 102.208ZM123.334 102.208L122.397 103.975L122.408 103.981L123.334 102.208ZM125.854 104.608L124.127 105.617L124.133 105.627L124.139 105.637L125.854 104.608ZM125.854 111.928L124.132 110.911L124.127 110.919L125.854 111.928ZM123.334 114.328L122.408 112.555L123.334 114.328ZM121.342 110.368L119.857 109.027L119.855 109.03L121.342 110.368ZM121.342 106.168L119.855 107.506L119.867 107.519L119.879 107.533L121.342 106.168ZM118.102 110.368L116.59 111.678L116.59 111.678L118.102 110.368ZM119.71 113.168C118.652 113.168 117.767 112.95 117.012 112.555L115.16 116.101C116.548 116.826 118.08 117.168 119.71 117.168V113.168ZM117.023 112.561C116.298 112.177 115.738 111.64 115.316 110.919L111.863 112.937C112.657 114.296 113.761 115.359 115.149 116.095L117.023 112.561ZM115.316 110.919C114.915 110.233 114.678 109.37 114.678 108.256H110.678C110.678 109.958 111.048 111.543 111.863 112.937L115.316 110.919ZM114.678 108.256C114.678 107.163 114.913 106.306 115.316 105.617L111.863 103.599C111.05 104.99 110.678 106.565 110.678 108.256H114.678ZM115.305 105.637C115.744 104.904 116.317 104.362 117.047 103.975L115.173 100.441C113.79 101.174 112.683 102.232 111.875 103.579L115.305 105.637ZM117.036 103.981C117.791 103.586 118.676 103.368 119.734 103.368V99.368C118.104 99.368 116.572 99.71 115.184 100.435L117.036 103.981ZM119.734 103.368C120.792 103.368 121.663 103.586 122.397 103.975L124.271 100.441C122.892 99.7098 121.363 99.368 119.734 99.368V103.368ZM122.408 103.981C123.148 104.367 123.71 104.903 124.127 105.617L127.58 103.599C126.782 102.233 125.664 101.169 124.26 100.435L122.408 103.981ZM124.139 105.637C124.55 106.323 124.79 107.172 124.79 108.256H128.79C128.79 106.556 128.405 104.973 127.569 103.579L124.139 105.637ZM124.79 108.256C124.79 109.339 124.55 110.202 124.132 110.911L127.575 112.945C128.405 111.542 128.79 109.957 128.79 108.256H124.79ZM124.127 110.919C123.71 111.633 123.148 112.169 122.408 112.555L124.26 116.101C125.664 115.367 126.782 114.303 127.58 112.937L124.127 110.919ZM122.408 112.555C121.652 112.95 120.768 113.168 119.71 113.168V117.168C121.34 117.168 122.871 116.826 124.26 116.101L122.408 112.555ZM119.71 113.088C120.922 113.088 122.01 112.615 122.828 111.706L119.855 109.03C119.832 109.056 119.816 109.069 119.809 109.074C119.806 109.076 119.804 109.077 119.803 109.078C119.803 109.078 119.802 109.078 119.802 109.078C119.802 109.078 119.802 109.078 119.802 109.078C119.802 109.078 119.802 109.078 119.802 109.078C119.801 109.078 119.801 109.079 119.8 109.079C119.798 109.08 119.794 109.081 119.788 109.082C119.776 109.084 119.751 109.088 119.71 109.088V113.088ZM122.826 111.709C123.71 110.729 124.014 109.481 124.014 108.256H120.014C120.014 108.855 119.869 109.015 119.857 109.027L122.826 111.709ZM124.014 108.256C124.014 107.036 123.712 105.777 122.804 104.803L119.879 107.533C119.881 107.534 119.91 107.563 119.942 107.663C119.977 107.771 120.014 107.959 120.014 108.256H124.014ZM122.828 104.83C122.021 103.933 120.946 103.448 119.734 103.448V107.448C119.768 107.448 119.787 107.451 119.794 107.453C119.801 107.454 119.801 107.455 119.798 107.453C119.796 107.452 119.797 107.452 119.804 107.458C119.812 107.463 119.829 107.477 119.855 107.506L122.828 104.83ZM119.734 103.448C118.521 103.448 117.446 103.933 116.639 104.83L119.612 107.506C119.638 107.477 119.655 107.463 119.663 107.458C119.67 107.452 119.672 107.452 119.669 107.453C119.666 107.455 119.666 107.454 119.673 107.453C119.68 107.451 119.699 107.448 119.734 107.448V103.448ZM116.639 104.83C115.762 105.804 115.478 107.053 115.478 108.256H119.478C119.478 107.953 119.514 107.758 119.55 107.643C119.567 107.587 119.583 107.553 119.594 107.534C119.604 107.515 119.61 107.508 119.612 107.506L116.639 104.83ZM115.478 108.256C115.478 109.448 115.741 110.698 116.59 111.678L119.613 109.058C119.63 109.078 119.478 108.92 119.478 108.256H115.478ZM116.59 111.678C117.4 112.612 118.495 113.088 119.71 113.088V109.088C119.668 109.088 119.644 109.084 119.635 109.082C119.626 109.081 119.627 109.08 119.633 109.083C119.639 109.085 119.643 109.088 119.642 109.088C119.642 109.087 119.631 109.079 119.613 109.058L116.59 111.678ZM144.769 98.08H146.769V96.08H144.769V98.08ZM144.769 101.824V103.824H146.769V101.824H144.769ZM138.001 101.824V99.824H136.001V101.824H138.001ZM138.001 104.8H136.001V106.8H138.001V104.8ZM142.993 104.8H144.993V102.8H142.993V104.8ZM142.993 108.376V110.376H144.993V108.376H142.993ZM138.001 108.376V106.376H136.001V108.376H138.001ZM138.001 115V117H140.001V115H138.001ZM133.297 115H131.297V117H133.297V115ZM133.297 98.08V96.08H131.297V98.08H133.297ZM142.769 98.08V101.824H146.769V98.08H142.769ZM144.769 99.824H138.001V103.824H144.769V99.824ZM136.001 101.824V104.8H140.001V101.824H136.001ZM138.001 106.8H142.993V102.8H138.001V106.8ZM140.993 104.8V108.376H144.993V104.8H140.993ZM142.993 106.376H138.001V110.376H142.993V106.376ZM136.001 108.376V115H140.001V108.376H136.001ZM138.001 113H133.297V117H138.001V113ZM135.297 115V98.08H131.297V115H135.297ZM133.297 100.08H144.769V96.08H133.297V100.08ZM147.11 99.616L145.744 101.077L145.768 101.099L145.793 101.121L147.11 99.616ZM147.11 96.136L145.767 94.654L145.755 94.6646L145.744 94.6755L147.11 96.136ZM151.094 96.136L149.728 97.5965L149.739 97.6073L149.751 97.618L151.094 96.136ZM151.094 99.616L152.435 101.1L152.437 101.098L151.094 99.616ZM151.454 101.536H153.454V99.536H151.454V101.536ZM151.454 115V117H153.454V115H151.454ZM146.75 115H144.75V117H146.75V115ZM146.75 101.536V99.536H144.75V101.536H146.75ZM149.126 98.288C148.666 98.288 148.498 98.1727 148.427 98.1108L145.793 101.121C146.747 101.955 147.922 102.288 149.126 102.288V98.288ZM148.477 98.1555C148.413 98.096 148.395 98.0594 148.389 98.0451C148.383 98.0302 148.366 97.9866 148.366 97.888H144.366C144.366 99.1214 144.838 100.229 145.744 101.077L148.477 98.1555ZM148.366 97.888C148.366 97.7751 148.385 97.7227 148.393 97.7037C148.4 97.6864 148.418 97.6515 148.477 97.5965L145.744 94.6755C144.827 95.5329 144.366 96.6532 144.366 97.888H148.366ZM148.453 97.618C148.525 97.5527 148.684 97.44 149.126 97.44V93.44C147.905 93.44 146.719 93.7913 145.767 94.654L148.453 97.618ZM149.126 97.44C149.543 97.44 149.675 97.5466 149.728 97.5965L152.461 94.6755C151.522 93.7974 150.341 93.44 149.126 93.44V97.44ZM149.751 97.618C149.816 97.6767 149.833 97.7122 149.839 97.725C149.844 97.7386 149.862 97.7835 149.862 97.888H153.862C153.862 96.6316 153.377 95.5052 152.437 94.654L149.751 97.618ZM149.862 97.888C149.862 97.978 149.847 98.0141 149.843 98.0237C149.838 98.0336 149.821 98.0709 149.751 98.134L152.437 101.098C153.366 100.257 153.862 99.1434 153.862 97.888H149.862ZM149.754 98.1318C149.702 98.1782 149.562 98.288 149.126 98.288V102.288C150.323 102.288 151.494 101.95 152.435 101.1L149.754 98.1318ZM149.454 101.536V115H153.454V101.536H149.454ZM151.454 113H146.75V117H151.454V113ZM148.75 115V101.536H144.75V115H148.75ZM146.75 103.536H151.454V99.536H146.75V103.536ZM166.637 102.976L165.133 104.295L165.138 104.3L165.144 104.306L166.637 102.976ZM168.005 115V117H170.005V115H168.005ZM163.301 115H161.301V117H163.301V115ZM162.701 105.976L161.209 107.308L161.221 107.322L161.234 107.335L162.701 105.976ZM159.437 105.976L160.905 107.335L160.917 107.322L160.929 107.308L159.437 105.976ZM158.837 115V117H160.837V115H158.837ZM154.133 115H152.133V117H154.133V115ZM154.133 101.536V99.536H152.133V101.536H154.133ZM158.837 101.536H160.837V99.536H158.837V101.536ZM158.837 103.456H156.837V109.921L160.488 104.585L158.837 103.456ZM160.517 101.992L161.444 103.764L161.459 103.756L161.475 103.748L160.517 101.992ZM162.941 103.416C163.996 103.416 164.65 103.743 165.133 104.295L168.141 101.657C166.8 100.129 164.991 99.416 162.941 99.416V103.416ZM165.144 104.306C165.645 104.87 166.005 105.739 166.005 107.152H170.005C170.005 105.045 169.453 103.13 168.131 101.646L165.144 104.306ZM166.005 107.152V115H170.005V107.152H166.005ZM168.005 113H163.301V117H168.005V113ZM165.301 115V107.776H161.301V115H165.301ZM165.301 107.776C165.301 106.662 165.005 105.52 164.169 104.617L161.234 107.335C161.226 107.327 161.237 107.332 161.254 107.382C161.273 107.44 161.301 107.562 161.301 107.776H165.301ZM164.193 104.644C163.366 103.718 162.259 103.304 161.093 103.304V107.304C161.205 107.304 161.239 107.322 161.228 107.317C161.223 107.315 161.216 107.312 161.209 107.307C161.202 107.302 161.203 107.301 161.209 107.308L164.193 104.644ZM161.093 103.304C159.927 103.304 158.791 103.697 157.945 104.644L160.929 107.308C160.931 107.306 160.928 107.31 160.919 107.316C160.915 107.319 160.911 107.321 160.908 107.323C160.905 107.325 160.903 107.325 160.903 107.325C160.903 107.325 160.915 107.32 160.945 107.315C160.975 107.31 161.023 107.304 161.093 107.304V103.304ZM157.97 104.617C157.133 105.52 156.837 106.662 156.837 107.776H160.837C160.837 107.562 160.865 107.44 160.884 107.382C160.901 107.332 160.912 107.327 160.905 107.335L157.97 104.617ZM156.837 107.776V115H160.837V107.776H156.837ZM158.837 113H154.133V117H158.837V113ZM156.133 115V101.536H152.133V115H156.133ZM154.133 103.536H158.837V99.536H154.133V103.536ZM156.837 101.536V103.456H160.837V101.536H156.837ZM160.488 104.585C160.704 104.269 161.007 103.993 161.444 103.764L159.591 100.22C158.619 100.727 157.802 101.427 157.186 102.327L160.488 104.585ZM161.475 103.748C161.847 103.545 162.317 103.416 162.941 103.416V99.416C161.741 99.416 160.595 99.6711 159.559 100.236L161.475 103.748ZM170.562 104.608L168.768 103.725L168.762 103.736L168.757 103.747L170.562 104.608ZM172.65 102.208L171.576 100.521L171.576 100.521L172.65 102.208ZM177.882 101.92L176.922 103.674L176.946 103.688L176.971 103.7L177.882 101.92ZM179.49 103.384L177.787 104.432L181.49 110.45V103.384H179.49ZM179.49 97.24V95.24H177.49V97.24H179.49ZM184.218 97.24H186.218V95.24H184.218V97.24ZM184.218 115V117H186.218V115H184.218ZM179.49 115H177.49V117H179.49V115ZM179.49 113.128H181.49V105.8L177.767 112.112L179.49 113.128ZM177.93 114.616L176.97 112.862L177.93 114.616ZM172.626 114.328L171.538 116.006L171.545 116.011L171.552 116.015L172.626 114.328ZM170.562 111.928L168.752 112.778L168.76 112.795L168.768 112.811L170.562 111.928ZM178.794 106.216L177.334 107.582L177.345 107.595L177.357 107.607L178.794 106.216ZM175.314 106.216L176.752 107.606L176.764 107.594L176.775 107.582L175.314 106.216ZM175.314 110.32L173.832 111.663L173.843 111.675L173.854 111.686L175.314 110.32ZM178.794 110.32L177.357 108.929L177.345 108.941L177.334 108.954L178.794 110.32ZM171.818 108.256C171.818 107.101 172.024 106.19 172.367 105.469L168.757 103.747C168.109 105.106 167.818 106.627 167.818 108.256H171.818ZM172.357 105.491C172.725 104.743 173.187 104.237 173.724 103.895L171.576 100.521C170.353 101.299 169.423 102.393 168.768 103.725L172.357 105.491ZM173.724 103.895C174.274 103.545 174.875 103.368 175.578 103.368V99.368C174.137 99.368 172.787 99.7506 171.576 100.521L173.724 103.895ZM175.578 103.368C176.15 103.368 176.58 103.487 176.922 103.674L178.843 100.166C177.84 99.6168 176.734 99.368 175.578 99.368V103.368ZM176.971 103.7C177.352 103.895 177.606 104.138 177.787 104.432L181.194 102.336C180.607 101.382 179.789 100.649 178.793 100.14L176.971 103.7ZM181.49 103.384V97.24H177.49V103.384H181.49ZM179.49 99.24H184.218V95.24H179.49V99.24ZM182.218 97.24V115H186.218V97.24H182.218ZM184.218 113H179.49V117H184.218V113ZM181.49 115V113.128H177.49V115H181.49ZM177.767 112.112C177.593 112.408 177.345 112.656 176.97 112.862L178.891 116.37C179.86 115.84 180.651 115.096 181.213 114.144L177.767 112.112ZM176.97 112.862C176.643 113.04 176.194 113.168 175.554 113.168V117.168C176.738 117.168 177.873 116.928 178.891 116.37L176.97 112.862ZM175.554 113.168C174.851 113.168 174.25 112.991 173.7 112.641L171.552 116.015C172.763 116.785 174.113 117.168 175.554 117.168V113.168ZM173.714 112.65C173.19 112.31 172.73 111.802 172.357 111.045L168.768 112.811C169.419 114.134 170.335 115.226 171.538 116.006L173.714 112.65ZM172.372 111.078C172.023 110.334 171.818 109.41 171.818 108.256H167.818C167.818 109.886 168.109 111.41 168.752 112.778L172.372 111.078ZM181.514 108.256C181.514 107.01 181.158 105.782 180.231 104.825L177.357 107.607C177.391 107.642 177.514 107.774 177.514 108.256H181.514ZM180.255 104.85C179.407 103.944 178.3 103.472 177.066 103.472V107.472C177.165 107.472 177.208 107.489 177.223 107.495C177.238 107.501 177.274 107.519 177.334 107.582L180.255 104.85ZM177.066 103.472C175.831 103.472 174.711 103.933 173.854 104.85L176.775 107.582C176.83 107.524 176.865 107.506 176.882 107.499C176.901 107.491 176.953 107.472 177.066 107.472V103.472ZM173.876 104.826C172.949 105.786 172.618 107.028 172.618 108.256H176.618C176.618 107.724 176.752 107.606 176.752 107.606L173.876 104.826ZM172.618 108.256C172.618 109.487 172.957 110.697 173.832 111.663L176.796 108.977C176.743 108.919 176.618 108.753 176.618 108.256H172.618ZM173.854 111.686C174.711 112.603 175.831 113.064 177.066 113.064V109.064C176.953 109.064 176.901 109.045 176.882 109.037C176.865 109.03 176.83 109.012 176.775 108.954L173.854 111.686ZM177.066 113.064C178.3 113.064 179.407 112.592 180.255 111.686L177.334 108.954C177.274 109.017 177.238 109.035 177.223 109.041C177.208 109.047 177.165 109.064 177.066 109.064V113.064ZM180.231 111.711C181.164 110.747 181.514 109.506 181.514 108.256H177.514C177.514 108.766 177.384 108.901 177.357 108.929L180.231 111.711ZM199.691 109.216V111.216H201.447L201.674 109.475L199.691 109.216ZM190.787 109.216V107.216H188.652L188.791 109.346L190.787 109.216ZM191.387 110.872L189.941 112.254L189.972 112.287L190.004 112.317L191.387 110.872ZM194.459 110.344V108.344H193.197L192.654 109.483L194.459 110.344ZM199.475 110.344L201.426 110.781L201.973 108.344H199.475V110.344ZM198.251 112.84L196.709 111.566L196.706 111.57L198.251 112.84ZM195.995 114.544L196.825 116.364L196.825 116.364L195.995 114.544ZM189.419 114.328L188.459 116.083L188.47 116.089L189.419 114.328ZM186.995 111.928L185.245 112.897L185.251 112.907L185.257 112.917L186.995 111.928ZM186.995 104.608L188.738 105.589L188.744 105.577L186.995 104.608ZM189.395 102.208L188.446 100.447L188.435 100.453L189.395 102.208ZM196.499 102.184L197.437 100.418L197.437 100.418L196.499 102.184ZM198.899 104.536L197.155 105.517L197.162 105.528L198.899 104.536ZM194.963 106.936V108.936H196.963V106.936H194.963ZM194.387 105.592L193.07 107.097L193.088 107.113L193.106 107.128L194.387 105.592ZM191.531 105.568L192.804 107.11L192.824 107.094L192.843 107.077L191.531 105.568ZM190.811 106.936L188.844 106.574L188.409 108.936H190.811V106.936ZM197.763 108.112C197.763 108.393 197.744 108.674 197.707 108.957L201.674 109.475C201.733 109.022 201.763 108.567 201.763 108.112H197.763ZM199.691 107.216H190.787V111.216H199.691V107.216ZM188.791 109.346C188.856 110.346 189.146 111.423 189.941 112.254L192.832 109.49C192.875 109.535 192.873 109.555 192.853 109.501C192.831 109.441 192.797 109.311 192.782 109.086L188.791 109.346ZM190.004 112.317C190.783 113.062 191.76 113.4 192.779 113.4V109.4C192.744 109.4 192.723 109.397 192.715 109.396C192.708 109.395 192.711 109.394 192.72 109.398C192.73 109.402 192.741 109.407 192.752 109.414C192.758 109.418 192.762 109.421 192.765 109.423C192.768 109.426 192.769 109.427 192.769 109.427L190.004 112.317ZM192.779 113.4C193.477 113.4 194.197 113.24 194.851 112.829C195.505 112.418 195.962 111.837 196.264 111.205L192.654 109.483C192.635 109.522 192.627 109.527 192.64 109.512C192.654 109.496 192.681 109.469 192.722 109.443C192.763 109.417 192.799 109.404 192.818 109.399C192.835 109.395 192.825 109.4 192.779 109.4V113.4ZM194.459 112.344H199.475V108.344H194.459V112.344ZM197.523 109.907C197.384 110.526 197.117 111.072 196.709 111.566L199.793 114.114C200.6 113.136 201.149 112.018 201.426 110.781L197.523 109.907ZM196.706 111.57C196.322 112.037 195.821 112.425 195.165 112.724L196.825 116.364C197.992 115.831 198.996 115.083 199.796 114.11L196.706 111.57ZM195.165 112.724C194.539 113.01 193.818 113.168 192.971 113.168V117.168C194.332 117.168 195.627 116.91 196.825 116.364L195.165 112.724ZM192.971 113.168C191.932 113.168 191.081 112.951 190.367 112.567L188.47 116.089C189.837 116.825 191.353 117.168 192.971 117.168V113.168ZM190.378 112.573C189.688 112.196 189.146 111.665 188.733 110.939L185.257 112.917C186.027 114.271 187.101 115.34 188.459 116.083L190.378 112.573ZM188.744 110.959C188.36 110.266 188.131 109.388 188.131 108.256H184.131C184.131 109.94 184.477 111.51 185.245 112.897L188.744 110.959ZM188.131 108.256C188.131 107.123 188.361 106.259 188.738 105.589L185.252 103.627C184.477 105.005 184.131 106.573 184.131 108.256H188.131ZM188.744 105.577C189.14 104.862 189.669 104.337 190.354 103.963L188.435 100.453C187.072 101.199 186.001 102.274 185.245 103.639L188.744 105.577ZM190.343 103.969C191.053 103.586 191.912 103.368 192.971 103.368V99.368C191.342 99.368 189.816 99.7096 188.446 100.447L190.343 103.969ZM192.971 103.368C194.019 103.368 194.865 103.581 195.56 103.95L197.437 100.418C196.084 99.6993 194.578 99.368 192.971 99.368V103.368ZM195.56 103.95C196.242 104.312 196.764 104.821 197.156 105.517L200.642 103.555C199.881 102.203 198.804 101.144 197.437 100.418L195.56 103.95ZM197.162 105.528C197.536 106.182 197.763 107.019 197.763 108.112H201.763C201.763 106.453 201.413 104.906 200.635 103.544L197.162 105.528ZM196.963 106.936C196.963 105.867 196.579 104.816 195.667 104.056L193.106 107.128C193.088 107.113 193.064 107.089 193.039 107.056C193.014 107.023 192.994 106.988 192.98 106.956C192.952 106.89 192.963 106.87 192.963 106.936H196.963ZM195.704 104.087C194.908 103.39 193.94 103.088 192.947 103.088V107.088C193.039 107.088 193.076 107.101 193.078 107.102C193.079 107.102 193.077 107.101 193.073 107.099C193.069 107.097 193.068 107.095 193.07 107.097L195.704 104.087ZM192.947 103.088C191.98 103.088 191.014 103.367 190.218 104.059L192.843 107.077C192.837 107.083 192.828 107.089 192.818 107.094C192.809 107.1 192.803 107.102 192.803 107.102C192.803 107.102 192.813 107.099 192.836 107.095C192.859 107.092 192.895 107.088 192.947 107.088V103.088ZM190.257 104.026C189.431 104.709 189.015 105.642 188.844 106.574L192.778 107.298C192.804 107.155 192.835 107.087 192.845 107.069C192.851 107.057 192.84 107.08 192.804 107.11L190.257 104.026ZM190.811 108.936H194.963V104.936H190.811V108.936ZM206.392 103.912H204.392V110.351L208.04 105.045L206.392 103.912ZM210.736 101.416H212.736V99.416H210.736V101.416ZM210.736 106.432V108.432H212.736V106.432H210.736ZM207.136 107.032L208.391 108.589L208.391 108.589L207.136 107.032ZM206.392 115V117H208.392V115H206.392ZM201.688 115H199.688V117H201.688V115ZM201.688 101.536V99.536H199.688V101.536H201.688ZM206.392 101.536H208.392V99.536H206.392V101.536ZM208.04 105.045C208.415 104.499 208.847 104.097 209.335 103.806L207.288 100.37C206.272 100.975 205.424 101.789 204.744 102.779L208.04 105.045ZM209.335 103.806C209.782 103.54 210.237 103.416 210.736 103.416V99.416C209.506 99.416 208.345 99.7399 207.288 100.37L209.335 103.806ZM208.736 101.416V106.432H212.736V101.416H208.736ZM210.736 104.432H209.416V108.432H210.736V104.432ZM209.416 104.432C208.193 104.432 206.891 104.66 205.88 105.475L208.391 108.589C208.375 108.602 208.417 108.561 208.587 108.516C208.759 108.471 209.027 108.432 209.416 108.432V104.432ZM205.88 105.475C204.701 106.426 204.392 107.863 204.392 109.12H208.392C208.392 108.779 208.436 108.598 208.462 108.525C208.482 108.468 208.474 108.522 208.391 108.589L205.88 105.475ZM204.392 109.12V115H208.392V109.12H204.392ZM206.392 113H201.688V117H206.392V113ZM203.688 115V101.536H199.688V115H203.688ZM201.688 103.536H206.392V99.536H201.688V103.536ZM204.392 101.536V103.912H208.392V101.536H204.392Z" fill="#4A357D"/>
<path d="M11.9786 25.9287C15.305 17.8946 22.0219 11.5632 31.9366 7.11248C41.4362 2.84707 53.4738 0.474649 67.7108 0.0644182C96.8965 -0.778285 132.129 6.6899 166.913 21.0999C169.413 22.1353 171.892 23.198 174.344 24.2878L170.876 24.2977C169.389 23.6527 167.889 23.0176 166.376 22.3924C95.1122 -7.12451 26.4282 -5.29824 13.2711 26.465C9.46042 35.6631 10.7183 46.376 16.16 57.6747C29.5024 85.3974 68.0221 116.637 118.654 137.608C123.552 139.637 128.455 141.525 133.35 143.272C163.052 153.879 192.389 159.254 217.279 158.535C231.334 158.129 243.188 155.799 252.52 151.61C262.101 147.31 268.573 141.228 271.759 133.535C274.633 126.593 274.623 118.789 272.105 110.52L273.18 109.307C276.13 118.421 276.091 126.742 273.054 134.072C269.725 142.106 263.01 148.437 253.093 152.888C243.594 157.153 231.559 159.526 217.322 159.936C215.834 159.978 214.331 160 212.814 160C187.723 160 158.579 154.151 129.258 143.272C125.543 141.896 121.829 140.438 118.117 138.9C83.3341 124.493 53.1401 104.864 33.0981 83.628C25.2172 75.2776 19.2467 67.0383 15.2902 59.0586C14.3362 57.1384 13.501 55.2355 12.7843 53.35C8.92168 43.1906 8.64985 33.9653 11.9786 25.9287V25.9287Z" fill="url(#paint10_linear_4_179)"/>
<path d="M11.9786 25.9287C15.305 17.8946 22.0219 11.5632 31.9366 7.11248C41.4362 2.84707 53.4738 0.474649 67.7108 0.0644182C96.8965 -0.778285 132.129 6.6899 166.913 21.0999C169.413 22.1353 171.892 23.198 174.344 24.2878L170.876 24.2977C169.389 23.6527 167.889 23.0176 166.376 22.3924C95.1122 -7.12451 26.4282 -5.29824 13.2711 26.465C9.46042 35.6631 10.7183 46.376 16.16 57.6747C29.5024 85.3974 68.0221 116.637 118.654 137.608C123.552 139.637 128.455 141.525 133.35 143.272C163.052 153.879 192.389 159.254 217.279 158.535C231.334 158.129 243.188 155.799 252.52 151.61C262.101 147.31 268.573 141.228 271.759 133.535C274.633 126.593 274.623 118.789 272.105 110.52L273.18 109.307C276.13 118.421 276.091 126.742 273.054 134.072C269.725 142.106 263.01 148.437 253.093 152.888C243.594 157.153 231.559 159.526 217.322 159.936C215.834 159.978 214.331 160 212.814 160C187.723 160 158.579 154.151 129.258 143.272C125.543 141.896 121.829 140.438 118.117 138.9C83.3341 124.493 53.1401 104.864 33.0981 83.628C25.2172 75.2776 19.2467 67.0383 15.2902 59.0586C14.3362 57.1384 13.501 55.2355 12.7843 53.35C8.92168 43.1906 8.64985 33.9653 11.9786 25.9287V25.9287Z" fill="url(#paint11_radial_4_179)"/>
<path d="M11.9786 25.9287C15.305 17.8946 22.0219 11.5632 31.9366 7.11248C41.4362 2.84707 53.4738 0.474649 67.7108 0.0644182C96.8965 -0.778285 132.129 6.6899 166.913 21.0999C169.413 22.1353 171.892 23.198 174.344 24.2878L170.876 24.2977C169.389 23.6527 167.889 23.0176 166.376 22.3924C95.1122 -7.12451 26.4282 -5.29824 13.2711 26.465C9.46042 35.6631 10.7183 46.376 16.16 57.6747C29.5024 85.3974 68.0221 116.637 118.654 137.608C123.552 139.637 128.455 141.525 133.35 143.272C163.052 153.879 192.389 159.254 217.279 158.535C231.334 158.129 243.188 155.799 252.52 151.61C262.101 147.31 268.573 141.228 271.759 133.535C274.633 126.593 274.623 118.789 272.105 110.52L273.18 109.307C276.13 118.421 276.091 126.742 273.054 134.072C269.725 142.106 263.01 148.437 253.093 152.888C243.594 157.153 231.559 159.526 217.322 159.936C215.834 159.978 214.331 160 212.814 160C187.723 160 158.579 154.151 129.258 143.272C125.543 141.896 121.829 140.438 118.117 138.9C83.3341 124.493 53.1401 104.864 33.0981 83.628C25.2172 75.2776 19.2467 67.0383 15.2902 59.0586C14.3362 57.1384 13.501 55.2355 12.7843 53.35C8.92168 43.1906 8.64985 33.9653 11.9786 25.9287V25.9287Z" fill="url(#paint12_radial_4_179)"/>
<path d="M11.9786 25.9287C15.305 17.8946 22.0219 11.5632 31.9366 7.11248C41.4362 2.84707 53.4738 0.474649 67.7108 0.0644182C96.8965 -0.778285 132.129 6.6899 166.913 21.0999C169.413 22.1353 171.892 23.198 174.344 24.2878L170.876 24.2977C169.389 23.6527 167.889 23.0176 166.376 22.3924C95.1122 -7.12451 26.4282 -5.29824 13.2711 26.465C9.46042 35.6631 10.7183 46.376 16.16 57.6747C29.5024 85.3974 68.0221 116.637 118.654 137.608C123.552 139.637 128.455 141.525 133.35 143.272C163.052 153.879 192.389 159.254 217.279 158.535C231.334 158.129 243.188 155.799 252.52 151.61C262.101 147.31 268.573 141.228 271.759 133.535C274.633 126.593 274.623 118.789 272.105 110.52L273.18 109.307C276.13 118.421 276.091 126.742 273.054 134.072C269.725 142.106 263.01 148.437 253.093 152.888C243.594 157.153 231.559 159.526 217.322 159.936C215.834 159.978 214.331 160 212.814 160C187.723 160 158.579 154.151 129.258 143.272C125.543 141.896 121.829 140.438 118.117 138.9C83.3341 124.493 53.1401 104.864 33.0981 83.628C25.2172 75.2776 19.2467 67.0383 15.2902 59.0586C14.3362 57.1384 13.501 55.2355 12.7843 53.35C8.92168 43.1906 8.64985 33.9653 11.9786 25.9287V25.9287Z" fill="url(#paint13_radial_4_179)"/>
<path d="M273.053 25.9287C269.727 17.8946 263.01 11.5632 253.095 7.11248C243.596 2.84707 231.558 0.474649 217.321 0.0644182C188.136 -0.778285 152.903 6.6899 118.12 21.0999C115.619 22.1353 113.14 23.198 110.688 24.2878L114.156 24.2977C115.643 23.6527 117.143 23.0176 118.656 22.3924C189.92 -7.12451 258.604 -5.29824 271.761 26.465C275.572 35.6631 274.314 46.376 268.872 57.6747C255.53 85.3974 217.01 116.637 166.379 137.608C161.48 139.637 156.577 141.525 151.682 143.272C121.98 153.879 92.6432 159.254 67.7526 158.535C53.6985 158.129 41.8438 155.799 32.5123 151.61C22.9311 147.31 16.4589 141.228 13.2734 133.535C10.3993 126.593 10.4092 118.789 12.9274 110.52L11.8524 109.307C8.90173 118.421 8.94127 126.742 11.9785 134.072C15.3073 142.106 22.0217 148.437 31.9389 152.888C41.4385 157.153 53.4736 159.526 67.7106 159.936C69.1983 159.978 70.7008 160 72.2182 160C97.309 160 126.453 154.151 155.774 143.272C159.489 141.896 163.203 140.438 166.915 138.9C201.698 124.493 231.892 104.864 251.934 83.628C259.815 75.2776 265.785 67.0383 269.742 59.0586C270.696 57.1384 271.531 55.2355 272.248 53.35C276.11 43.1906 276.382 33.9653 273.053 25.9287V25.9287Z" fill="url(#paint14_linear_4_179)"/>
<path d="M273.053 25.9287C269.727 17.8946 263.01 11.5632 253.095 7.11248C243.596 2.84707 231.558 0.474649 217.321 0.0644182C188.136 -0.778285 152.903 6.6899 118.12 21.0999C115.619 22.1353 113.14 23.198 110.688 24.2878L114.156 24.2977C115.643 23.6527 117.143 23.0176 118.656 22.3924C189.92 -7.12451 258.604 -5.29824 271.761 26.465C275.572 35.6631 274.314 46.376 268.872 57.6747C255.53 85.3974 217.01 116.637 166.379 137.608C161.48 139.637 156.577 141.525 151.682 143.272C121.98 153.879 92.6432 159.254 67.7526 158.535C53.6985 158.129 41.8438 155.799 32.5123 151.61C22.9311 147.31 16.4589 141.228 13.2734 133.535C10.3993 126.593 10.4092 118.789 12.9274 110.52L11.8524 109.307C8.90173 118.421 8.94127 126.742 11.9785 134.072C15.3073 142.106 22.0217 148.437 31.9389 152.888C41.4385 157.153 53.4736 159.526 67.7106 159.936C69.1983 159.978 70.7008 160 72.2182 160C97.309 160 126.453 154.151 155.774 143.272C159.489 141.896 163.203 140.438 166.915 138.9C201.698 124.493 231.892 104.864 251.934 83.628C259.815 75.2776 265.785 67.0383 269.742 59.0586C270.696 57.1384 271.531 55.2355 272.248 53.35C276.11 43.1906 276.382 33.9653 273.053 25.9287V25.9287Z" fill="url(#paint15_radial_4_179)"/>
<path d="M273.053 25.9287C269.727 17.8946 263.01 11.5632 253.095 7.11248C243.596 2.84707 231.558 0.474649 217.321 0.0644182C188.136 -0.778285 152.903 6.6899 118.12 21.0999C115.619 22.1353 113.14 23.198 110.688 24.2878L114.156 24.2977C115.643 23.6527 117.143 23.0176 118.656 22.3924C189.92 -7.12451 258.604 -5.29824 271.761 26.465C275.572 35.6631 274.314 46.376 268.872 57.6747C255.53 85.3974 217.01 116.637 166.379 137.608C161.48 139.637 156.577 141.525 151.682 143.272C121.98 153.879 92.6432 159.254 67.7526 158.535C53.6985 158.129 41.8438 155.799 32.5123 151.61C22.9311 147.31 16.4589 141.228 13.2734 133.535C10.3993 126.593 10.4092 118.789 12.9274 110.52L11.8524 109.307C8.90173 118.421 8.94127 126.742 11.9785 134.072C15.3073 142.106 22.0217 148.437 31.9389 152.888C41.4385 157.153 53.4736 159.526 67.7106 159.936C69.1983 159.978 70.7008 160 72.2182 160C97.309 160 126.453 154.151 155.774 143.272C159.489 141.896 163.203 140.438 166.915 138.9C201.698 124.493 231.892 104.864 251.934 83.628C259.815 75.2776 265.785 67.0383 269.742 59.0586C270.696 57.1384 271.531 55.2355 272.248 53.35C276.11 43.1906 276.382 33.9653 273.053 25.9287V25.9287Z" fill="url(#paint16_radial_4_179)"/>
</g>
<defs>
<linearGradient id="paint0_linear_4_179" x1="142.469" y1="74.7559" x2="142.469" y2="135.549" gradientUnits="userSpaceOnUse">
<stop stop-color="#D9D9D9"/>
<stop offset="1" stop-color="#D9D9D9" stop-opacity="0"/>
</linearGradient>
<linearGradient id="paint1_linear_4_179" x1="0" y1="80.0001" x2="285.034" y2="80.0001" gradientUnits="userSpaceOnUse">
<stop stop-color="#996DFF"/>
<stop offset="0.5" stop-color="#35E8B3"/>
<stop offset="1" stop-color="#E2D45C"/>
</linearGradient>
<linearGradient id="paint2_linear_4_179" x1="142.516" y1="91.9115" x2="142.516" y2="136.167" gradientUnits="userSpaceOnUse">
<stop stop-color="#28203E"/>
<stop offset="1" stop-color="#121214" stop-opacity="0"/>
</linearGradient>
<linearGradient id="paint3_linear_4_179" x1="28.7906" y1="61.0154" x2="28.7906" y2="78.4551" gradientUnits="userSpaceOnUse">
<stop stop-color="#A9A9AD"/>
<stop offset="1" stop-color="#A9A9AD" stop-opacity="0"/>
</linearGradient>
<linearGradient id="paint4_linear_4_179" x1="61.9996" y1="61.0151" x2="61.9996" y2="78.4548" gradientUnits="userSpaceOnUse">
<stop stop-color="#A9A9AD"/>
<stop offset="1" stop-color="#A9A9AD" stop-opacity="0"/>
</linearGradient>
<linearGradient id="paint5_linear_4_179" x1="100.196" y1="61.0151" x2="100.196" y2="78.4548" gradientUnits="userSpaceOnUse">
<stop stop-color="#A9A9AD"/>
<stop offset="1" stop-color="#A9A9AD" stop-opacity="0"/>
</linearGradient>
<linearGradient id="paint6_linear_4_179" x1="140.153" y1="61.0153" x2="140.153" y2="78.4551" gradientUnits="userSpaceOnUse">
<stop stop-color="#A9A9AD"/>
<stop offset="1" stop-color="#A9A9AD" stop-opacity="0"/>
</linearGradient>
<linearGradient id="paint7_linear_4_179" x1="179.363" y1="61.0151" x2="179.363" y2="78.4549" gradientUnits="userSpaceOnUse">
<stop stop-color="#A9A9AD"/>
<stop offset="1" stop-color="#A9A9AD" stop-opacity="0"/>
</linearGradient>
<linearGradient id="paint8_linear_4_179" x1="212.594" y1="61.015" x2="212.594" y2="78.4548" gradientUnits="userSpaceOnUse">
<stop stop-color="#A9A9AD"/>
<stop offset="1" stop-color="#A9A9AD" stop-opacity="0"/>
</linearGradient>
<linearGradient id="paint9_linear_4_179" x1="247.009" y1="61.0154" x2="247.009" y2="78.4552" gradientUnits="userSpaceOnUse">
<stop stop-color="#A9A9AD"/>
<stop offset="1" stop-color="#A9A9AD" stop-opacity="0"/>
</linearGradient>
<linearGradient id="paint10_linear_4_179" x1="258.619" y1="114.544" x2="66.1068" y2="115.532" gradientUnits="userSpaceOnUse">
<stop stop-color="#996DFF"/>
<stop offset="0.5" stop-color="#35E8B3"/>
<stop offset="1" stop-color="#E2D45C"/>
</linearGradient>
<radialGradient id="paint11_radial_4_179" cx="0" cy="0" r="1" gradientUnits="userSpaceOnUse" gradientTransform="translate(140.758 146.212) rotate(15.7611) scale(129.411 214.897)">
<stop stop-color="#171226"/>
<stop offset="1" stop-color="#171226" stop-opacity="0"/>
</radialGradient>
<radialGradient id="paint12_radial_4_179" cx="0" cy="0" r="1" gradientUnits="userSpaceOnUse" gradientTransform="translate(173.94 25.0002) rotate(-157.036) scale(29.1264 48.3668)">
<stop stop-color="#261945"/>
<stop offset="1" stop-color="#261945" stop-opacity="0"/>
</radialGradient>
<radialGradient id="paint13_radial_4_179" cx="0" cy="0" r="1" gradientUnits="userSpaceOnUse" gradientTransform="translate(273.485 107.273) rotate(76.7293) scale(33.0025 54.8033)">
<stop stop-color="#191326"/>
<stop offset="1" stop-color="#191326" stop-opacity="0"/>
</radialGradient>
<linearGradient id="paint14_linear_4_179" x1="149.849" y1="17.7274" x2="192.879" y2="126.818" gradientUnits="userSpaceOnUse">
<stop stop-color="#996DFF"/>
<stop offset="0.5" stop-color="#35E8B3"/>
<stop offset="1" stop-color="#E2D45C"/>
</linearGradient>
<radialGradient id="paint15_radial_4_179" cx="0" cy="0" r="1" gradientUnits="userSpaceOnUse" gradientTransform="translate(108.03 27.4244) rotate(-19.3523) scale(65.8413 109.335)">
<stop stop-color="#171225"/>
<stop offset="1" stop-color="#171225" stop-opacity="0"/>
</radialGradient>
<radialGradient id="paint16_radial_4_179" cx="0" cy="0" r="1" gradientUnits="userSpaceOnUse" gradientTransform="translate(11.9698 108.788) rotate(67.4706) scale(44.2891 73.5456)">
<stop stop-color="#191327"/>
<stop offset="1" stop-color="#191327" stop-opacity="0"/>
</radialGradient>
<clipPath id="clip0_4_179">
<rect width="285.034" height="160" fill="white"/>
</clipPath>
</defs>
</svg>
